# xmcd
#
# Track frame offsets: 
#        150
#        10329
#        24396
#        37160
#        49511
#        61503
#        76764
#        89588
#        105326
#        117269
#        133554
#        144826
#        152691
#        165273
#        178495
#        191258
#        206042
#        220623
#        233700
#        248431
#        263158
#
# Disc length: 3674 seconds
#
# Revision: 9
# Processed by: cddbd v1.5.2PL0 Copyright (c) Steve Scherf et al.
# Submitted via: ExactAudioCopy v0.99pb4
#
DISCID=050e5815
DTITLE=Fats Waller - Sweet Sue  [CD 6-10]
DYEAR=1900
DGENRE=Jazz, Swing
TTITLE0=Hold Tight
TTITLE1=Kiss Me With Your Eyes
TTITLE2=Sweet Sue  (1939)
TTITLE3=I Can't Give You Anything But Love
TTITLE4=You Asked For It - You Got It
TTITLE5=Some Rainy Day
TTITLE6=Tain't What You Do
TTITLE7=Got No Time
TTITLE8=Step Up And Shake My Hand
TTITLE9=Undecided
TTITLE10=Rememeber Who You're Promised To
TTITLE11=London Suite - Picadilly
TTITLE12=London Suite - Chelsea
TTITLE13=London Suite - Soho
TTITLE14=London Suite - Bond Street
TTITLE15=London Suite - Limehouse
TTITLE16=London Suite - Whitechapel
TTITLE17=Smoke Dreams Of You
TTITLE18=You Can't Have Your Cake And Eat It
TTITLE19=Honey Hush
TTITLE20=I Used To Love You
EXTD=
EXTT0=
EXTT1=
EXTT2=
EXTT3=
EXTT4=
EXTT5=
EXTT6=
EXTT7=
EXTT8=
EXTT9=
EXTT10=
EXTT11=
EXTT12=
EXTT13=
EXTT14=
EXTT15=
EXTT16=
EXTT17=
EXTT18=
EXTT19=
EXTT20=
PLAYORDER=
